<svg xmlns="http://www.w3.org/2000/svg" viewBox="0 0 740 740"><defs><style>.a{fill:#5ac4be;}.b{fill:#fee56d;}.c{fill:#f26b6c;}.d{fill:none;stroke:#1c545d;stroke-linecap:round;stroke-miterlimit:10;stroke-width:40px;}</style></defs><title>lim7</title><circle class="a" cx="370" cy="370" r="350"/><path class="b" d="M620.77,129.94L125.23,624.31A348.93,348.93,0,0,0,374.76,728.89c193.3,0,350-156.7,350-350A348.92,348.92,0,0,0,620.77,129.94Z" transform="translate(-4.76 -7.6)"/><circle class="c" cx="370" cy="369" r="279.53"/><path class="c" d="M575.06,176.64a278.59,278.59,0,0,1,79.23,194.95c0,154.38-125.15,279.53-279.53,279.53a278.58,278.58,0,0,1-193.58-77.89Z" transform="translate(-4.76 -7.6)"/><line class="d" x1="66.23" y1="210.1" x2="351.26" y2="210.1"/><line class="d" x1="406.35" y1="216.58" x2="678.05" y2="216.58"/><line class="d" x1="265.72" y1="46.85" x2="265.72" y2="695.73"/><polyline class="d" points="56.92 526.63 265.72 210.1 352.32 385.71"/><line class="d" x1="489.1" y1="46.85" x2="489.1" y2="681.14"/><polyline class="d" points="362.27 539.28 489.1 216.58 679.23 526.63"/><circle class="d" cx="370" cy="370" r="350"/><circle class="d" cx="370.97" cy="367.7" r="265.97"/></svg>