<?xml version="1.0" ?><!DOCTYPE svg  PUBLIC '-//W3C//DTD SVG 1.1//EN'  'http://www.w3.org/Graphics/SVG/1.1/DTD/svg11.dtd'><svg enable-background="new 0 0 512 512" height="512px" version="1.1" viewBox="0 0 512 512" width="512px" xml:space="preserve" xmlns="http://www.w3.org/2000/svg" xmlns:xlink="http://www.w3.org/1999/xlink"><g id="Layer_1"/><g id="Colors"><rect fill="#FFFFFF" height="267" stroke="#231F20" stroke-miterlimit="10" width="267" x="-779" y="-512"/><rect fill="#FBD50A" height="267" stroke="#231F20" stroke-miterlimit="10" width="267" x="-779" y="-244"/><rect fill="#C61934" height="267" stroke="#231F20" stroke-miterlimit="10" width="267" x="-779" y="23"/><rect fill="#96212C" height="267" stroke="#231F20" stroke-miterlimit="10" width="267" x="-779" y="290"/><rect fill="#202C3C" height="267" stroke="#231F20" stroke-miterlimit="10" width="267" x="-779" y="557"/><rect fill="#ED1C24" height="267" stroke="#231F20" stroke-miterlimit="10" width="267" x="-779" y="825"/></g><g id="Icon"><ellipse cx="258.375" cy="255.649" fill="#FBD50A" rx="254.776" ry="252.774"/></g><g id="Layer_4"><path d="M405.961,310.277   c6.754-17.672,10.454-36.853,10.454-56.898c0-88.042-71.372-159.414-159.414-159.414S97.586,165.337,97.586,253.379   c0,20.044,3.699,39.224,10.452,56.894" fill="none" stroke="#FDFEFF" stroke-linecap="round" stroke-miterlimit="10" stroke-width="20"/><path d="M370.531,141.469   C341.621,112.143,301.433,93.964,257,93.964c-44.942,0-85.541,18.598-114.519,48.517" fill="none" stroke="#202C3C" stroke-linecap="round" stroke-miterlimit="10" stroke-width="37"/><rect fill="#9EA3A6" height="77.351" width="14.667" x="106.667" y="273.592"/><g><path d="M116.667,348.277c0,12.15,9.85,22,22,22H157c12.15,0,22-9.85,22-22v-76c0-12.15-9.85-22-22-22h-18.333    c-12.15,0-22,9.85-22,22V348.277z" fill="#CECECE"/></g><g><rect fill="#ED1C24" height="120" width="17.667" x="116.667" y="250.277"/></g><g><rect fill="#202C3C" height="120" width="17.667" x="136.667" y="250.277"/><rect fill="none" height="120" stroke="#231F20" stroke-miterlimit="10" width="17.667" x="136.667" y="250.277"/></g><rect fill="#9EA3A6" height="77.351" width="14.667" x="394.333" y="273.592"/><g><path d="M336.667,348.277c0,12.15,9.85,22,22,22H377c12.15,0,22-9.85,22-22v-76c0-12.15-9.85-22-22-22h-18.333    c-12.15,0-22,9.85-22,22V348.277z" fill="#CECECE"/></g><g><rect fill="#ED1C24" height="120" width="17.667" x="381.333" y="250.277"/></g><g><rect fill="#202C3C" height="120" width="17.667" x="361.333" y="250.277"/><rect fill="none" height="120" stroke="#231F20" stroke-miterlimit="10" width="17.667" x="361.333" y="250.277"/></g></g></svg>