<?xml version="1.0" ?><!DOCTYPE svg  PUBLIC '-//W3C//DTD SVG 1.1//EN'  'http://www.w3.org/Graphics/SVG/1.1/DTD/svg11.dtd'><svg enable-background="new 0 0 128 128" id="Слой_1" version="1.1" viewBox="0 0 128 128" xml:space="preserve" xmlns="http://www.w3.org/2000/svg" xmlns:xlink="http://www.w3.org/1999/xlink"><path d="M114.5,104h-100c-5.5,0-10-4.5-10-10V34c0-5.5,4.5-10,10-10h100c5.5,0,10,4.5,10,10v60  C124.5,99.5,120,104,114.5,104z" fill="#E0DAE4"/><g><path d="M9,38c0-5.5,4.5-10,10-10l100-2c1.5,0,2.8,2.3,4.1,2.9c-1.7-2.9-4.9-4.9-8.6-4.9h-100c-5.5,0-10,4.5-10,10   v60c0,4.1,2.4,7.6,5.9,9.1C9.5,101.6,7,99.9,7,98L9,38z" fill="#FFFFFF"/><path d="M118.1,24.9c0.9,1.5,3.4,3.2,3.4,5.1l-2,60c0,5.5-4.5,10-10,10H9.5c-1.5,0-2.8-0.3-4.1-0.9   c1.7,2.9,4.9,4.9,8.6,4.9h100c5.5,0,10-4.5,10-10V34C124,29.9,121.6,26.4,118.1,24.9z" fill="#060808" opacity="0.1"/></g><rect fill="#EFEDF2" height="50" width="100" x="14.5" y="54"/><g opacity="0.1"><rect fill="#060808" height="4" width="100" x="14.5" y="101"/></g><g><polyline fill="#B0ABB2" points="66,54 66,79 61,79 61,54  "/></g><g><polyline fill="#B0ABB2" points="84,54 84,79 79,79 79,54  "/></g><g><polyline fill="#B0ABB2" points="101,54 101,79 96,79 96,54  "/></g><g><polyline fill="#B0ABB2" points="49,54 49,79 44,79 44,54  "/></g><g><polyline fill="#B0ABB2" points="32,54 32,79 27,79 27,54  "/></g><rect fill="#060808" height="4" opacity="0.1" width="100" x="14.5" y="54"/><rect fill="#EFEDF2" height="10" width="20" x="54" y="35"/><circle cx="86" cy="40" fill="#B0ABB2" r="5"/><circle cx="106" cy="40" fill="#B0ABB2" r="5"/><g><path d="M114.5,22.5h-100C8.2,22.5,3,27.7,3,34v60c0,6.3,5.2,11.5,11.5,11.5h100c6.3,0,11.5-5.2,11.5-11.5V34   C126,27.7,120.8,22.5,114.5,22.5z M30.5,55.5v22h-2v-22H30.5z M42.5,55.5V79c0,0.8,0.7,1.5,1.5,1.5h1v22H31v-22h1   c0.8,0,1.5-0.7,1.5-1.5V55.5H42.5z M47.5,55.5v22h-2v-22H47.5z M59.5,55.5V79c0,0.8,0.7,1.5,1.5,1.5h1v22H48v-22h1   c0.8,0,1.5-0.7,1.5-1.5V55.5H59.5z M64.5,55.5v22h-2v-22H64.5z M77.5,55.5V79c0,0.8,0.7,1.5,1.5,1.5h1v22H65v-22h1   c0.8,0,1.5-0.7,1.5-1.5V55.5H77.5z M82.5,55.5v22h-2v-22H82.5z M94.5,55.5V79c0,0.8,0.7,1.5,1.5,1.5h1v22H83v-22h1   c0.8,0,1.5-0.7,1.5-1.5V55.5H94.5z M99.5,55.5v22h-2v-22H99.5z M113,55.5v47h-13v-22h1c0.8,0,1.5-0.7,1.5-1.5V55.5H113z M27,80.5h1   v22H16v-47h9.5V79C25.5,79.8,26.2,80.5,27,80.5z M123,94c0,4.2-3,7.6-7,8.4V54c0-0.8-0.7-1.5-1.5-1.5h-100c-0.8,0-1.5,0.7-1.5,1.5   v48.4c-4-0.7-7-4.2-7-8.4V34c0-4.7,3.8-8.5,8.5-8.5h100c4.7,0,8.5,3.8,8.5,8.5V94z" fill="#4A374F"/><path d="M74,33.5H54c-0.8,0-1.5,0.7-1.5,1.5v10c0,0.8,0.7,1.5,1.5,1.5h20c0.8,0,1.5-0.7,1.5-1.5V35   C75.5,34.2,74.8,33.5,74,33.5z M72.5,43.5h-17v-7h17V43.5z" fill="#4A374F"/><path d="M24,39.5h-0.5V35c0-0.8-0.7-1.5-1.5-1.5s-1.5,0.7-1.5,1.5v4.5H20c-0.8,0-1.5,0.7-1.5,1.5s0.7,1.5,1.5,1.5   h0.5V45c0,0.8,0.7,1.5,1.5,1.5s1.5-0.7,1.5-1.5v-2.5H24c0.8,0,1.5-0.7,1.5-1.5S24.8,39.5,24,39.5z" fill="#4A374F"/><path d="M34,35.5h-0.5V35c0-0.8-0.7-1.5-1.5-1.5s-1.5,0.7-1.5,1.5v0.5H30c-0.8,0-1.5,0.7-1.5,1.5s0.7,1.5,1.5,1.5   h0.5V45c0,0.8,0.7,1.5,1.5,1.5s1.5-0.7,1.5-1.5v-6.5H34c0.8,0,1.5-0.7,1.5-1.5S34.8,35.5,34,35.5z" fill="#4A374F"/><path d="M44,41.5h-0.5V35c0-0.8-0.7-1.5-1.5-1.5s-1.5,0.7-1.5,1.5v6.5H40c-0.8,0-1.5,0.7-1.5,1.5s0.7,1.5,1.5,1.5   h0.5V45c0,0.8,0.7,1.5,1.5,1.5s1.5-0.7,1.5-1.5v-0.5H44c0.8,0,1.5-0.7,1.5-1.5S44.8,41.5,44,41.5z" fill="#4A374F"/><path d="M86,33.5c-3.6,0-6.5,2.9-6.5,6.5s2.9,6.5,6.5,6.5s6.5-2.9,6.5-6.5S89.6,33.5,86,33.5z M86,43.5   c-1.9,0-3.5-1.6-3.5-3.5s1.6-3.5,3.5-3.5s3.5,1.6,3.5,3.5S87.9,43.5,86,43.5z" fill="#4A374F"/><path d="M106,33.5c-3.6,0-6.5,2.9-6.5,6.5s2.9,6.5,6.5,6.5s6.5-2.9,6.5-6.5S109.6,33.5,106,33.5z M106,43.5   c-1.9,0-3.5-1.6-3.5-3.5s1.6-3.5,3.5-3.5s3.5,1.6,3.5,3.5S107.9,43.5,106,43.5z" fill="#4A374F"/></g></svg>